<?xml version="1.0" standalone="no"?><!DOCTYPE svg PUBLIC "-//W3C//DTD SVG 1.1//EN" "http://www.w3.org/Graphics/SVG/1.1/DTD/svg11.dtd"><svg t="1521702869411" class="icon" style="" viewBox="0 0 1025 1024" version="1.1" xmlns="http://www.w3.org/2000/svg" p-id="666" xmlns:xlink="http://www.w3.org/1999/xlink" width="200.1953125" height="200"><defs><style type="text/css"></style></defs><path d="M514.3 909.1c-6.8 0-13.2-2.9-17.6-8-2.6-2.9-63.7-72.5-125.6-170.6-36.6-57.9-65.8-113.6-86.8-165.7-26.7-66.3-40.3-127-40.3-180.5 0-71.9 28-139.5 78.9-190.4S441.4 115 513.3 115s139.5 28 190.4 78.9c50.9 50.9 78.9 118.5 78.9 190.4 0 53.5-13.4 114.2-39.9 180.5-20.8 52.1-49.8 107.8-86 165.7-61.6 98-122.2 167.6-124.7 170.5-4.5 5.1-10.9 8-17.7 8.1z" fill="#16C4AF" p-id="667"></path><path d="M513.2 510.9c-67.2 0-121.8-54.6-121.8-121.8 0-67.2 54.6-121.8 121.8-121.8 67.2 0 121.8 54.6 121.8 121.8 0 67.2-54.6 121.8-121.8 121.8z" fill="#ffffff" p-id="668"></path></svg>